<svg id="구성_요소_41_1" data-name="구성 요소 41 – 1" xmlns="http://www.w3.org/2000/svg" xmlns:xlink="http://www.w3.org/1999/xlink" width="44" height="44" viewBox="0 0 44 44">
  <defs>
    <clipPath id="clip-path">
      <rect id="사각형_95" data-name="사각형 95" width="32.785" height="30.277" fill="#2e2e2e"/>
    </clipPath>
  </defs>
  <rect id="사각형_91" data-name="사각형 91" width="44" height="44" rx="6" fill="#fff"/>
  <g id="그룹_113" data-name="그룹 113" transform="translate(5.607 6.861)">
    <g id="그룹_112" data-name="그룹 112" clip-path="url(#clip-path)">
      <path id="패스_72" data-name="패스 72" d="M16.392,0C7.339,0,0,5.8,0,12.947c0,4.6,3.042,8.628,7.607,10.933L6.061,29.648a.478.478,0,0,0,.117.492.468.468,0,0,0,.335.137.476.476,0,0,0,.285-.11l6.644-4.486a20.653,20.653,0,0,0,2.95.217c9.052,0,16.394-5.8,16.394-12.951S25.443,0,16.392,0M7.636,17.044a.99.99,0,0,1-.258.711.9.9,0,0,1-.691.268.958.958,0,0,1-.6-.193.886.886,0,0,1-.318-.534.974.974,0,0,1-.017-.252l0-6.148H3.969a1.158,1.158,0,0,1-.633-.17.694.694,0,0,1-.328-.477c-.01-.056-.02-.119-.026-.184a.718.718,0,0,1,.281-.606,1.108,1.108,0,0,1,.7-.219H9.419a1.157,1.157,0,0,1,.632.168.707.707,0,0,1,.33.478.934.934,0,0,1,.012.179.751.751,0,0,1-.272.617,1.1,1.1,0,0,1-.7.214H7.638Zm7.8.729a.853.853,0,0,1-.626.25.808.808,0,0,1-.849-.537l-.486-1.439h-3.04l-.49,1.439a.787.787,0,0,1-.846.537.88.88,0,0,1-.556-.171.794.794,0,0,1-.289-.487.934.934,0,0,1-.018-.2,1.07,1.07,0,0,1,.052-.348c.035-.135.079-.273.128-.405l2.441-6.725a.836.836,0,0,1,.343-.461,1.09,1.09,0,0,1,.579-.139h.453a1.191,1.191,0,0,1,.617.149.991.991,0,0,1,.39.57l2.278,6.605a3.761,3.761,0,0,1,.155.526,1.978,1.978,0,0,1,.033.227.832.832,0,0,1-.267.609m6.3-.119a1.119,1.119,0,0,1-.7.216H17.1a1.228,1.228,0,0,1-.709-.182.855.855,0,0,1-.358-.582,2.865,2.865,0,0,1-.041-.385l0-6.655a.985.985,0,0,1,.258-.711.91.91,0,0,1,.692-.269.932.932,0,0,1,.6.2.9.9,0,0,1,.316.534.959.959,0,0,1,.016.249l0,6.151H21.03a1.133,1.133,0,0,1,.638.167.715.715,0,0,1,.319.48,1.1,1.1,0,0,1,.03.18.728.728,0,0,1-.28.61m7.375-.637a.184.184,0,0,0,0,.061.863.863,0,0,1-.283.725,1.1,1.1,0,0,1-.687.22.95.95,0,0,1-.47-.1,1.257,1.257,0,0,1-.37-.411l-2.176-3.5-1.036,1.08.011,1.955a1,1,0,0,1-.26.711.911.911,0,0,1-.692.268.966.966,0,0,1-.605-.193.888.888,0,0,1-.317-.534,1.139,1.139,0,0,1-.017-.252l0-6.978a1,1,0,0,1,.257-.711.912.912,0,0,1,.691-.269.935.935,0,0,1,.6.2.883.883,0,0,1,.317.534.926.926,0,0,1,.018.249l.006,2.859,2.964-3.408a2.081,2.081,0,0,1,.36-.325.7.7,0,0,1,.392-.105.966.966,0,0,1,.565.175.705.705,0,0,1,.313.461c0,.006.006.034.014.073a.313.313,0,0,0,0,.08.746.746,0,0,1-.086.359,1.791,1.791,0,0,1-.225.316l-1.939,2.118L28.757,16.3l.069.11a1.938,1.938,0,0,1,.272.547c0,.008.006.031.014.059" transform="translate(0 0)" fill="#2e2e2e"/>
      <path id="패스_73" data-name="패스 73" d="M14.725,14.067l-1.112,3.466h2.209L14.75,14.067Z" transform="translate(-2.757 -2.849)" fill="#2e2e2e"/>
    </g>
  </g>
</svg>
