<svg id="구성_요소_43_1" data-name="구성 요소 43 – 1" xmlns="http://www.w3.org/2000/svg" xmlns:xlink="http://www.w3.org/1999/xlink" width="44" height="44" viewBox="0 0 44 44">
  <defs>
    <clipPath id="clip-path">
      <rect id="사각형_96" data-name="사각형 96" width="38.132" height="32.078" fill="#2e2e2e"/>
    </clipPath>
  </defs>
  <rect id="사각형_93" data-name="사각형 93" width="44" height="44" rx="6" fill="#fff"/>
  <g id="그룹_115" data-name="그룹 115" transform="translate(2.934 3)">
    <g id="그룹_114" data-name="그룹 114" clip-path="url(#clip-path)">
      <path id="패스_74" data-name="패스 74" d="M24.612,14.734a1.5,1.5,0,1,0,1.5,1.5,1.5,1.5,0,0,0-1.5-1.5" transform="translate(-3.287 -2.096)" fill="#2e2e2e"/>
      <path id="패스_75" data-name="패스 75" d="M9.024,14.734a1.5,1.5,0,1,0,1.5,1.5,1.5,1.5,0,0,0-1.5-1.5" transform="translate(-1.07 -2.096)" fill="#2e2e2e"/>
      <path id="패스_76" data-name="패스 76" d="M35.1,14.734a1.5,1.5,0,1,0,1.5,1.5,1.5,1.5,0,0,0-1.5-1.5" transform="translate(-4.777 -2.096)" fill="#2e2e2e"/>
      <path id="패스_77" data-name="패스 77" d="M32.106,0H6.019A6.031,6.031,0,0,0,0,6.045V20.384a6.028,6.028,0,0,0,6.019,6.041h8.989l3.067,4.992a.881.881,0,0,0,.1.144,1.028,1.028,0,0,0,1.78.007.732.732,0,0,0,.1-.151l3.064-4.992h8.985a6.034,6.034,0,0,0,6.025-6.041V6.045A6.037,6.037,0,0,0,32.106,0M8.469,17.7a2.239,2.239,0,0,1-1.962-1.007v.761H4.151V7.725h2.33v3.7a3.1,3.1,0,0,1,1.988-.923c3.167,0,3.288,3.551,3.288,3.551A3.446,3.446,0,0,1,8.469,17.7m7.354-6.535v6.288H13.571V11.694c0-1.988-1.062-1.939-1.062-1.939V7.5c3.411,0,3.314,3.66,3.314,3.66m9.449,2.977c0,3.55-3.948,3.557-3.948,3.557a3.49,3.49,0,0,1-3.858-3.557c0-3.6,3.858-3.6,3.858-3.6,4.078,0,3.948,3.6,3.948,3.6m8.71,3.224a3.389,3.389,0,0,1-3.412,3.644H29.66V18.938h.564c1.653,0,1.487-1.707,1.487-1.707v-.543a2.688,2.688,0,0,1-2.052.89c-3.245,0-3.21-3.465-3.21-3.465a3.213,3.213,0,0,1,3.3-3.574,2.557,2.557,0,0,1,1.961.89v-.661h2.27Z" transform="translate(0 0)" fill="#2e2e2e"/>
    </g>
  </g>
</svg>
