<svg id="구성_요소_1_2" data-name="구성 요소 1 – 2" xmlns="http://www.w3.org/2000/svg" xmlns:xlink="http://www.w3.org/1999/xlink" width="70" height="15.249" viewBox="0 0 70 15.249">
  <defs>
    <clipPath id="clip-path">
      <rect id="사각형_1" data-name="사각형 1" width="70" height="15.249" fill="#fff"/>
    </clipPath>
  </defs>
  <g id="그룹_1" data-name="그룹 1" clip-path="url(#clip-path)">
    <path id="패스_1" data-name="패스 1" d="M1.535,14.436A2.746,2.746,0,0,1,0,11.965a2.89,2.89,0,0,1,.357-1.451,1.175,1.175,0,0,1,1.094-.631,1.062,1.062,0,0,1,.883.4,1.924,1.924,0,0,1,.337,1.157,2.191,2.191,0,0,0,.641,1.672,2.5,2.5,0,0,0,1.735.558,2.668,2.668,0,0,0,1.924-.694,2.265,2.265,0,0,0,.726-1.7A1.9,1.9,0,0,0,7.109,9.83a6.553,6.553,0,0,0-1.83-1.1A5.931,5.931,0,0,1,2.818,7.044,3.66,3.66,0,0,1,2.04,4.709,4.612,4.612,0,0,1,2.661,2.3,4.149,4.149,0,0,1,4.48.682,6.525,6.525,0,0,1,7.34.1a8.143,8.143,0,0,1,2.766.442,4.48,4.48,0,0,1,1.935,1.262,2.82,2.82,0,0,1,.7,1.893A1.818,1.818,0,0,1,12.4,4.856a1.292,1.292,0,0,1-1.083.442.958.958,0,0,1-.778-.326,1.725,1.725,0,0,1-.294-1.062A2.136,2.136,0,0,0,9.475,2.29,2.678,2.678,0,0,0,7.74,1.723a2.25,2.25,0,0,0-1.567.5,1.969,1.969,0,0,0-.557,1.535,1.67,1.67,0,0,0,.536,1.252A6.4,6.4,0,0,0,8.076,6.1a7.668,7.668,0,0,1,2.871,1.788,3.742,3.742,0,0,1,.852,2.566,4.332,4.332,0,0,1-.684,2.292,5.2,5.2,0,0,1-2.082,1.851,7.369,7.369,0,0,1-3.46.736,7.974,7.974,0,0,1-4.038-.894" transform="translate(0 -0.082)" fill="#fff"/>
    <path id="패스_2" data-name="패스 2" d="M62.467,14.859a1.265,1.265,0,0,1-.4-.978,3.394,3.394,0,0,1,.042-.4,2.4,2.4,0,0,1,.8-1.335,2.092,2.092,0,0,1,1.388-.515,1.538,1.538,0,0,1,1.1.389,1.368,1.368,0,0,1,.41,1.041,2.016,2.016,0,0,1-.673,1.546,2.307,2.307,0,0,1-1.62.621,1.491,1.491,0,0,1-1.052-.368M63.96,9.906c.028-.577.091-1.416.147-2.608s.112-2.19.168-2.955a19.69,19.69,0,0,1,.252-2.072A3.123,3.123,0,0,1,65.317.621,1.98,1.98,0,0,1,66.8,0a1.388,1.388,0,0,1,1.073.389,1.574,1.574,0,0,1,.357,1.1,3.408,3.408,0,0,1-.084.778q-.295,1.094-.925,2.787T66.463,7.13c-.421,1.108-.7,2.058-1.031,2.776a.956.956,0,0,1-.883.673.563.563,0,0,1-.589-.673" transform="translate(-49.28 0)" fill="#fff"/>
    <path id="패스_3" data-name="패스 3" d="M100.742,23a.534.534,0,0,1,.344.723s-1.262,5.885-1.289,6.03c-.09.49.041.788.34.788.739,0,1.1-1.195,1.649-1.006.363.124.17.768.073.964a4.516,4.516,0,0,1-1.252,1.735,2.8,2.8,0,0,1-1.861.683,1.925,1.925,0,0,1-1.472-.536,1.789,1.789,0,0,1-.458-.915c-.124-.65.095-1.014-.134-1.041-.344-.042-1.228,2.492-3.72,2.492a2.69,2.69,0,0,1-2.177-.883,3.6,3.6,0,0,1-.747-2.4,9.223,9.223,0,0,1,.684-3.439,7.117,7.117,0,0,1,1.988-2.829,4.576,4.576,0,0,1,3.071-1.115c1.639,0,2.09.992,3,1.11.845.11,1.392-.512,1.967-.365m-4.6,6.542a5.826,5.826,0,0,0,1.073-2.156q.231-.862.3-1.325a5.535,5.535,0,0,0,.074-.862,1.725,1.725,0,0,0-.368-1.188,1.251,1.251,0,0,0-.978-.41,1.921,1.921,0,0,0-1.493.831A6.139,6.139,0,0,0,93.7,26.441a7.071,7.071,0,0,0-.378,2.145,2.762,2.762,0,0,0,.315,1.441.968.968,0,0,0,.862.515,2.144,2.144,0,0,0,1.64-1" transform="translate(-71.488 -17.67)" fill="#fff"/>
    <path id="패스_4" data-name="패스 4" d="M159.578,2.065,157.316,12.8c-.07.337-.112.91.338.91s.931-1.175,1.491-1.01c.716.211-.78,3.386-3.029,3.386-2.618,0-1.949-2.966-1.809-3.638l1.767-8.413c.212-1.006-1.138-.991-1.2-1.62-.062-.646,1.554-.975,2.173-1.1.967-.2,1.887-.4,2.3-.118a.753.753,0,0,1,.226.868" transform="translate(-122.374 -0.84)" fill="#fff"/>
    <path id="패스_5" data-name="패스 5" d="M247.293,23.255l-1.41,6.519c-.2.817-.077,1.416.61,1.472.489.04,1.017-.316,1.578-.946a11.525,11.525,0,0,0,1.42-2.23c.851-1.582.837-3.556.053-3.277a.657.657,0,0,1-.866-.436,1.663,1.663,0,0,1,.739-1.8c.874-.583,2.416-.492,3.071,1.356a4.358,4.358,0,0,1,.231,1.462,7.29,7.29,0,0,1-1.041,3.386,9.348,9.348,0,0,1-2.608,2.955,5.516,5.516,0,0,1-3.313,1.188,3.193,3.193,0,0,1-2.229-.694,2.492,2.492,0,0,1-.757-1.935,5.236,5.236,0,0,1,.126-1.094l.883-3.828c.236-.953-1.318-.979-1.22-1.619.086-.56,1.995-1.04,2.4-1.135a4.882,4.882,0,0,1,2.257-.179c.2.126.178.412.074.832" transform="translate(-192.583 -17.659)" fill="#fff"/>
    <path id="패스_6" data-name="패스 6" d="M295.927,31.664a3.915,3.915,0,0,1-1.083-2.881,6.868,6.868,0,0,1,.831-3.281,6.671,6.671,0,0,1,2.292-2.5,5.852,5.852,0,0,1,3.25-.946,3.1,3.1,0,0,1,2.072.684,2.152,2.152,0,0,1,.81,1.714,3.183,3.183,0,0,1-.484,1.787,3.617,3.617,0,0,1-1.7,1.241,13.638,13.638,0,0,1-3.386.778.371.371,0,0,0-.263.116.511.511,0,0,0-.031.368,2.593,2.593,0,0,0,.589,1.388,1.91,1.91,0,0,0,1.535.568,2.657,2.657,0,0,0,1.22-.316c1.055-.536,1.381-1.313,1.851-.946a.357.357,0,0,1,.105.294.711.711,0,0,1-.084.315,4.919,4.919,0,0,1-4.522,2.713,4.028,4.028,0,0,1-3-1.094m4.985-5.395a1.771,1.771,0,0,0,.915-1.63q0-1.2-.989-1.2c-1.616,0-2.982,3.085-2.6,3.557.183.228,1.622-.14,2.676-.729" transform="translate(-234.098 -17.509)" fill="#fff"/>
    <path id="패스_7" data-name="패스 7" d="M195.034,23.177a4.451,4.451,0,0,0-3.239-1.125,6.156,6.156,0,0,0-3.786,1.115,6.606,6.606,0,0,0-2.166,2.65,7.041,7.041,0,0,0-.673,2.8,3.925,3.925,0,0,0,1.188,3.008,4.746,4.746,0,0,0,3.376,1.115,5.912,5.912,0,0,0,3.691-1.115,6.543,6.543,0,0,0,2.114-2.639,7.167,7.167,0,0,0,.652-2.787,4.017,4.017,0,0,0-1.157-3.018m-2.4,4.7c-.338,1.321-1.4,3.744-2.983,3.483-1.75-.288-1.315-2.919-.862-4.635s1.471-3.53,2.92-3.307c.689.106,1.848.85.926,4.459" transform="translate(-147.02 -17.509)" fill="#fff"/>
  </g>
</svg>
