<svg id="그룹_306" data-name="그룹 306" xmlns="http://www.w3.org/2000/svg" width="180" height="40" viewBox="0 0 180 40">
  <g id="그룹_307" data-name="그룹 307">
    <path id="패스_293" data-name="패스 293" d="M3.948,37.655A7.223,7.223,0,0,1,0,31.173a7.712,7.712,0,0,1,.919-3.808A3.013,3.013,0,0,1,3.732,25.71,2.711,2.711,0,0,1,6,26.759a5.122,5.122,0,0,1,.866,3.034,5.806,5.806,0,0,0,1.649,4.386,6.358,6.358,0,0,0,4.462,1.463,6.783,6.783,0,0,0,4.948-1.821,6,6,0,0,0,1.866-4.469,5.024,5.024,0,0,0-1.514-3.78,16.8,16.8,0,0,0-4.705-2.9,15.254,15.254,0,0,1-6.328-4.414,9.731,9.731,0,0,1-2-6.124,12.3,12.3,0,0,1,1.6-6.317A10.746,10.746,0,0,1,11.52,1.572,16.5,16.5,0,0,1,18.875.055a20.558,20.558,0,0,1,7.112,1.159,11.505,11.505,0,0,1,4.976,3.31,7.486,7.486,0,0,1,1.811,4.965,4.836,4.836,0,0,1-.892,3.035A3.293,3.293,0,0,1,29.1,13.683a2.442,2.442,0,0,1-2-.855,4.6,4.6,0,0,1-.758-2.787,5.644,5.644,0,0,0-1.974-4.248A6.794,6.794,0,0,0,19.9,4.3a5.715,5.715,0,0,0-4.029,1.324A5.226,5.226,0,0,0,14.44,9.655a4.426,4.426,0,0,0,1.379,3.283,16.383,16.383,0,0,0,4.949,2.841q5.192,2.153,7.382,4.69A9.944,9.944,0,0,1,30.341,27.2a11.538,11.538,0,0,1-1.758,6.014,13.468,13.468,0,0,1-5.354,4.855A18.637,18.637,0,0,1,14.332,40Q7.9,40,3.948,37.655" fill="#005330"/>
    <path id="패스_294" data-name="패스 294" d="M33.91,38.979a3.352,3.352,0,0,1-1.027-2.566,9.064,9.064,0,0,1,.108-1.048,6.33,6.33,0,0,1,2.055-3.5,5.315,5.315,0,0,1,3.569-1.352,3.913,3.913,0,0,1,2.84,1.021,3.626,3.626,0,0,1,1.054,2.731,5.337,5.337,0,0,1-1.73,4.055,5.87,5.87,0,0,1-4.165,1.628,3.791,3.791,0,0,1-2.7-.966m3.84-12.993c.073-1.514.234-3.715.379-6.842q.214-4.743.432-7.751a52.571,52.571,0,0,1,.649-5.435,8.272,8.272,0,0,1,2.028-4.331A5.046,5.046,0,0,1,45.051,0,3.529,3.529,0,0,1,47.81,1.02a4.19,4.19,0,0,1,.919,2.9,9.142,9.142,0,0,1-.216,2.041q-.759,2.869-2.38,7.311T44.186,18.7c-1.082,2.906-1.807,5.4-2.65,7.283-.591,1.321-1.48,1.81-2.272,1.765a1.465,1.465,0,0,1-1.514-1.765" fill="#005330"/>
    <path id="패스_295" data-name="패스 295" d="M75.226,13.983a1.4,1.4,0,0,1,.885,1.9S72.865,31.317,72.8,31.7c-.231,1.285.105,2.068.873,2.068,1.9,0,2.823-3.135,4.24-2.641.933.326.437,2.016.186,2.53a11.834,11.834,0,0,1-3.219,4.552A7.122,7.122,0,0,1,70.091,40a4.895,4.895,0,0,1-3.785-1.407,4.735,4.735,0,0,1-1.177-2.4c-.318-1.706.244-2.659-.345-2.732C63.9,33.352,61.627,40,55.219,40a6.85,6.85,0,0,1-5.6-2.317,9.559,9.559,0,0,1-1.92-6.29,24.62,24.62,0,0,1,1.758-9.021,18.671,18.671,0,0,1,5.11-7.42,11.633,11.633,0,0,1,7.9-2.924c4.215,0,5.374,2.6,7.7,2.912,2.172.289,3.578-1.343,5.057-.957M63.385,31.145a15.4,15.4,0,0,0,2.758-5.655q.6-2.262.785-3.476a14.88,14.88,0,0,0,.189-2.262,4.59,4.59,0,0,0-.946-3.118,3.188,3.188,0,0,0-2.516-1.075,4.911,4.911,0,0,0-3.839,2.179,16.218,16.218,0,0,0-2.705,5.269,18.919,18.919,0,0,0-.973,5.628,7.362,7.362,0,0,0,.811,3.779,2.483,2.483,0,0,0,2.218,1.352q2.217,0,4.218-2.621" fill="#005330"/>
    <path id="패스_296" data-name="패스 296" d="M95.668,3.213,89.853,31.379c-.18.885-.288,2.387.868,2.387s2.395-3.082,3.834-2.649C96.4,31.671,92.549,40,86.767,40c-6.732,0-5.012-7.779-4.651-9.545L86.659,8.386c.544-2.638-2.927-2.6-3.083-4.248-.159-1.695,4-2.557,5.589-2.893C91.652.72,94.017.2,95.086.935a2,2,0,0,1,.582,2.278" fill="#005330"/>
    <path id="패스_297" data-name="패스 297" d="M140.684,14.679l-3.626,17.1c-.5,2.144-.2,3.714,1.568,3.863,1.258.105,2.614-.828,4.057-2.483a30.236,30.236,0,0,0,3.65-5.849c2.19-4.149,2.153-9.33.138-8.6a1.682,1.682,0,0,1-2.227-1.143,4.4,4.4,0,0,1,1.9-4.715c2.247-1.53,6.212-1.289,7.9,3.559a11.624,11.624,0,0,1,.6,3.834,19.391,19.391,0,0,1-2.677,8.883,24.384,24.384,0,0,1-6.706,7.752A14.014,14.014,0,0,1,136.734,40,8.106,8.106,0,0,1,131,38.179a6.609,6.609,0,0,1-1.947-5.076,14.049,14.049,0,0,1,.324-2.869l2.272-10.041c.606-2.5-3.389-2.568-3.137-4.248.221-1.47,5.129-2.73,6.176-2.978,2.023-.479,4.966-1,5.8-.47.526.331.457,1.079.191,2.182" fill="#005330"/>
    <path id="패스_298" data-name="패스 298" d="M158.988,37.13a10.382,10.382,0,0,1-2.785-7.557,18.325,18.325,0,0,1,2.136-8.608,17.4,17.4,0,0,1,5.895-6.565,14.837,14.837,0,0,1,8.356-2.483,7.875,7.875,0,0,1,5.327,1.794,5.69,5.69,0,0,1,2.083,4.5,8.477,8.477,0,0,1-1.244,4.689,9.314,9.314,0,0,1-4.381,3.254,34.467,34.467,0,0,1-8.707,2.043.946.946,0,0,0-.676.3,1.362,1.362,0,0,0-.081.965,6.866,6.866,0,0,0,1.514,3.641,4.859,4.859,0,0,0,3.948,1.491,6.73,6.73,0,0,0,3.136-.828c2.714-1.407,3.551-3.445,4.76-2.483a.947.947,0,0,1,.271.773,1.886,1.886,0,0,1-.217.826,12.931,12.931,0,0,1-4.516,5.1A12.452,12.452,0,0,1,166.7,40a10.242,10.242,0,0,1-7.707-2.87m12.818-14.151a4.662,4.662,0,0,0,2.353-4.275q0-3.144-2.542-3.145c-4.155,0-7.667,8.094-6.692,9.332.472.6,4.17-.367,6.881-1.912" fill="#005330"/>
    <path id="패스_299" data-name="패스 299" d="M123.465,14.869q-2.974-2.951-8.328-2.952a15.61,15.61,0,0,0-9.735,2.924,17.271,17.271,0,0,0-5.571,6.952A18.794,18.794,0,0,0,98.1,29.131a10.407,10.407,0,0,0,3.056,7.89q3.054,2.925,8.68,2.924a15,15,0,0,0,9.492-2.924,17.11,17.11,0,0,0,5.435-6.924,19.117,19.117,0,0,0,1.677-7.311,10.654,10.654,0,0,0-2.975-7.917M117.3,27.2c-.868,3.466-3.6,9.821-7.671,9.137-4.5-.756-3.381-7.657-2.218-12.158s3.783-9.26,7.509-8.675c1.772.278,4.751,2.23,2.38,11.7" fill="#005330"/>
    <g id="구성_요소_35_1" data-name="구성 요소 35 – 1">
      <rect id="사각형_326" data-name="사각형 326" width="180" height="40" fill="none"/>
    </g>
  </g>
</svg>
